<svg version="1.1" id="Layer_1" xmlns="http://www.w3.org/2000/svg" xmlns:xlink="http://www.w3.org/1999/xlink" x="0px" y="0px"
	 width="100%" viewBox="0 0 211 294" enable-background="new 0 0 211 294" xml:space="preserve">
<path fill="#010001" opacity="1.000000" stroke="none" 
	d="
M107.999992,295.000000 
	C106.933327,295.000000 105.866661,295.000000 104.388641,294.619812 
	C103.083870,292.938446 102.190437,291.637268 101.296997,290.336090 
	C100.197998,291.890717 99.098999,293.445374 98.000000,295.000000 
	C97.555557,295.000000 97.111107,295.000000 96.185776,294.697845 
	C89.872879,290.517853 88.805634,290.591949 87.000000,295.000000 
	C84.958336,295.000000 82.916664,295.000000 80.418732,294.626709 
	C78.591377,292.972504 77.401009,291.358887 75.805008,290.492188 
	C73.646896,289.320190 72.962753,288.440582 75.739014,286.901001 
	C93.312370,286.961853 110.436981,287.022400 127.561371,286.984680 
	C134.030014,286.970459 140.498154,286.729126 146.967651,286.992188 
	C146.645050,288.927917 146.321304,290.462738 145.748184,291.997681 
	C145.498810,291.997772 145.000000,292.000000 144.853165,291.791016 
	C144.189987,291.308136 143.673660,291.034210 143.157333,290.760284 
	C143.071503,291.000824 142.985672,291.241364 142.899857,291.481873 
	C143.599899,291.654602 144.299942,291.827301 145.042496,292.158844 
	C145.390747,292.212616 145.696503,292.107513 146.293274,292.088196 
	C148.900803,291.268341 151.217285,290.362701 153.533783,289.457031 
	C153.365341,288.967712 153.196899,288.478424 153.028442,287.989105 
	C151.004974,287.530396 148.981491,287.071716 147.146149,286.346191 
	C148.125412,285.346497 148.916534,284.613678 150.058594,283.893799 
	C151.370514,283.485077 152.331528,283.063416 153.292542,282.641724 
	C152.517426,281.744354 151.742310,280.846954 150.825592,279.571075 
	C149.690002,274.357605 146.166748,273.062073 141.867371,273.031586 
	C134.076569,272.976440 126.285103,273.015991 118.114349,273.015991 
	C118.114349,258.236725 118.114349,243.622620 118.397018,228.924438 
	C119.197189,228.334427 119.714699,227.828491 120.232208,227.322556 
	C119.521378,226.879623 118.810555,226.436691 118.023750,225.581757 
	C117.585396,222.831894 118.244461,221.475082 120.908394,221.099075 
	C137.444061,218.765198 150.776978,210.635925 161.903381,198.579178 
	C163.838669,199.432983 165.551758,200.182678 167.301620,200.281555 
	C167.716232,200.304993 168.254227,198.144333 168.808823,196.812119 
	C166.286072,196.812119 164.591888,196.812119 163.010788,196.494263 
	C165.960068,191.396820 168.796295,186.617249 171.880554,181.943634 
	C172.546143,183.876770 172.963699,185.703949 173.381256,187.531143 
	C173.723465,187.481659 174.065659,187.432175 174.407867,187.382675 
	C175.337891,184.329544 176.267899,181.276398 177.364655,178.156540 
	C177.655548,177.888519 177.779709,177.687210 177.903885,177.485916 
	C177.563034,177.600433 177.222183,177.714951 176.562210,177.757965 
	C175.433365,177.005051 174.623627,176.323654 173.826416,175.361603 
	C174.033615,174.364105 174.228271,173.647278 174.762604,172.807678 
	C180.687897,168.827255 180.929382,166.736084 176.039124,163.568146 
	C176.147110,161.230850 176.321777,159.319366 176.401337,158.448654 
	C180.843323,157.093018 184.361328,156.019363 188.234451,154.954391 
	C189.755188,154.780609 190.920807,154.598145 192.761093,154.310074 
	C191.646805,152.145264 190.841187,150.580124 190.006622,149.004410 
	C189.977676,148.993835 190.011856,148.942551 190.108307,148.738861 
	C189.886139,148.007950 189.567535,147.480713 189.013046,146.644135 
	C186.749878,145.556610 184.736053,144.149338 182.693069,144.105698 
	C172.086258,143.879044 161.472000,144.000198 150.300797,144.000198 
	C150.300797,141.732605 150.300690,139.950104 150.300812,138.167618 
	C150.301941,122.193100 150.565720,106.212868 150.217636,90.245964 
	C149.959015,78.382881 145.389542,68.496490 135.719696,60.880981 
	C127.162712,54.141891 117.655060,52.625881 107.239128,52.901649 
	C99.127357,53.116413 92.091003,55.963890 85.957413,60.716385 
	C76.049187,68.393578 71.487526,78.812630 71.635460,91.436623 
	C71.818726,107.076370 71.681671,122.719872 71.682945,138.361755 
	C71.683090,140.130249 71.682968,141.898743 71.682968,144.000153 
	C60.540558,144.000153 50.076283,143.988937 39.612045,144.004608 
	C33.868172,144.013214 32.353466,145.697876 32.096416,152.010590 
	C31.507130,153.750763 31.249817,155.373138 30.903917,157.110962 
	C30.698357,157.516083 30.747934,157.781708 30.961584,158.347778 
	C31.975357,159.445312 32.991611,160.218369 34.113586,161.298828 
	C35.392521,162.320465 36.565735,163.034698 37.738945,163.748917 
	C37.946175,163.219864 38.153400,162.690811 38.360626,162.161758 
	C36.904640,161.777130 35.448654,161.392517 33.942154,160.669678 
	C32.942204,159.540405 31.992769,158.749329 31.036385,157.721130 
	C31.029436,157.483994 31.009214,157.008911 31.310287,156.764526 
	C32.212791,155.688080 32.814224,154.855988 33.721451,154.275757 
	C37.752460,155.830368 41.477673,157.133133 44.535847,158.202621 
	C46.662273,166.469315 48.787865,174.732773 50.548500,182.998169 
	C49.453663,182.999954 48.723774,182.999802 47.975754,182.646881 
	C47.429176,181.415512 46.900730,180.536896 46.372284,179.658264 
	C45.982319,180.099899 45.592354,180.541519 45.202393,180.983154 
	C46.134808,181.653381 47.067219,182.323608 48.038376,183.390717 
	C48.747578,186.924179 49.418041,190.060776 50.207764,193.755310 
	C51.360531,190.843521 52.119522,188.926376 53.112122,187.265732 
	C64.396996,207.391815 81.515999,218.431320 103.886292,221.778427 
	C103.886292,223.739868 103.886292,225.365051 103.673965,227.078415 
	C103.602661,227.780396 103.743668,228.394180 103.945892,229.336334 
	C103.961983,230.105576 103.916870,230.546463 103.720085,231.033569 
	C103.673653,231.389206 103.778885,231.698624 103.940933,232.256622 
	C103.955322,232.669785 103.912903,232.834381 103.627365,233.170929 
	C100.495529,236.403839 101.903358,239.224304 103.936279,242.340240 
	C103.959442,243.107208 103.915871,243.547455 103.617386,244.105698 
	C103.537445,245.151367 103.712395,246.079041 103.954819,247.470673 
	C104.022285,256.317841 104.022285,264.701080 104.022285,273.016998 
	C95.830803,273.016998 88.370605,273.067963 80.911598,272.995697 
	C77.131691,272.959076 73.873230,273.873779 71.476402,277.183350 
	C71.074760,277.562256 70.803528,277.891296 70.753632,278.652893 
	C71.042854,279.724609 71.110741,280.363831 70.850372,281.033691 
	C67.892868,284.152527 68.680672,290.019531 71.848152,292.168671 
	C72.777817,292.799438 73.294205,294.039276 74.000000,295.000000 
	C49.690025,295.000000 25.380051,295.000000 1.035038,295.000000 
	C1.035038,197.117447 1.035038,99.234871 1.035038,1.000000 
	C30.353289,1.000000 59.707985,1.000000 89.869797,1.294055 
	C90.197281,2.024662 89.790733,2.636309 89.227074,2.871581 
	C80.312248,6.592735 71.152061,9.813695 62.527592,14.111483 
	C56.961945,16.884985 51.446949,20.528303 47.190952,25.001324 
	C38.416325,34.223385 30.902651,44.519249 26.365295,56.654404 
	C25.316967,59.458157 24.117781,62.205509 22.704052,65.170135 
	C21.386265,67.206871 20.220333,68.998451 19.428234,70.942375 
	C19.266617,71.339005 20.509508,72.307930 21.124825,73.359283 
	C21.044985,74.623360 20.945276,75.541183 20.649925,76.698120 
	C20.494757,77.332703 20.535234,77.728165 20.577343,78.302216 
	C20.503950,78.727043 20.346329,78.896400 19.809414,79.118301 
	C19.640169,80.167778 19.767620,81.087830 19.942394,82.255989 
	C19.949076,82.667496 19.908434,82.830902 19.563465,83.134048 
	C16.323465,86.439552 16.117277,89.426262 19.429958,92.578613 
	C18.734118,92.729401 18.450035,92.456726 18.104679,92.374573 
	C18.010151,92.710716 17.976900,92.856346 17.943649,93.001968 
	C18.059532,92.734718 18.175415,92.467468 18.831179,91.989807 
	C19.708450,95.151573 20.045845,98.523750 20.019005,101.955948 
	C14.508706,104.338158 18.096746,107.476913 19.500872,109.466034 
	C22.508781,113.727112 29.719397,113.770210 33.373051,110.082031 
	C37.802811,105.610420 38.066803,95.424255 33.771225,91.723236 
	C33.752926,91.314957 33.805874,91.152649 34.135437,90.811066 
	C35.695995,88.953621 38.790741,87.102631 33.919746,85.608429 
	C33.958057,84.143074 34.047241,83.076416 34.431030,82.038597 
	C37.363205,76.642479 40.006439,71.220207 42.604591,65.776421 
	C42.667236,65.645164 42.227127,65.273956 42.067291,64.984100 
	C42.113071,64.953537 41.984894,64.978287 41.674374,65.089806 
	C40.194965,65.804382 39.026077,66.407440 37.890625,66.629150 
	C39.781418,62.328129 41.638771,58.408447 43.601402,54.947102 
	C43.965328,57.630787 44.223969,59.856136 44.541164,62.585270 
	C48.746262,57.266090 48.603512,56.537804 43.558754,54.105751 
	C63.309319,18.072695 109.830780,2.752704 148.239059,23.910891 
	C161.265518,31.086840 171.883881,40.873466 178.124298,54.567257 
	C175.491257,53.094398 173.243011,51.551083 170.972809,49.964050 
	C170.950851,49.920338 171.007614,49.994854 171.025330,50.375065 
	C172.401962,53.782658 173.760880,56.810043 175.119797,59.837425 
	C175.731232,59.693020 176.342651,59.548615 176.954071,59.404209 
	C177.482025,57.775024 178.009964,56.145840 178.827087,54.709538 
	C181.795670,62.924118 184.475067,70.945816 186.869568,78.883209 
	C185.717422,78.140106 184.850189,77.481323 183.435928,76.407005 
	C183.102737,78.316788 182.296661,79.952980 182.686584,81.221588 
	C184.326187,86.556244 186.323166,91.781059 188.296417,97.391281 
	C190.256104,105.455437 194.667816,107.294464 201.120026,103.241837 
	C201.206421,105.349709 201.097290,107.171608 200.835907,109.151688 
	C200.616592,109.700157 200.549530,110.090446 200.482468,110.480743 
	C200.596069,110.438156 200.796494,110.413254 200.809341,110.350136 
	C200.899200,109.909050 200.950256,109.460060 201.358017,108.925438 
	C207.027191,105.142761 207.264160,96.819031 202.094086,92.541809 
	C202.067825,89.072372 202.100876,86.052338 202.322098,83.280914 
	C203.224304,84.553612 203.938339,85.577698 204.652374,86.601784 
	C205.188370,86.214233 205.724365,85.826675 206.260361,85.439117 
	C204.843246,83.629913 203.426132,81.820709 201.876465,79.689125 
	C201.600830,78.925819 201.457718,78.484894 201.581757,78.134262 
	C202.559448,78.177498 203.270004,78.130424 203.980545,78.083344 
	C203.017288,77.056465 202.054031,76.029579 200.976273,74.545166 
	C200.638306,72.870483 200.414841,71.653320 200.291595,70.450912 
	C200.391846,70.465668 200.471481,70.385551 200.471481,70.385551 
	C200.471481,70.385551 200.188766,70.351341 200.116776,70.089233 
	C200.062958,69.646828 200.081146,69.466530 200.340240,69.159210 
	C200.096344,68.351906 199.611511,67.671631 199.038849,66.673042 
	C198.928940,65.917755 198.906860,65.480782 199.105530,64.816376 
	C198.662811,63.704288 197.999329,62.819637 197.203888,61.620903 
	C194.323730,55.349064 192.161026,49.019554 188.675461,43.530010 
	C184.551636,37.035286 180.005737,30.474632 174.367325,25.344339 
	C162.238663,14.308657 148.322113,6.037464 131.869736,2.837074 
	C131.475616,2.760409 131.285355,1.635819 131.000000,1.000000 
	C157.973618,1.000000 184.947220,1.000000 211.960419,1.000000 
	C211.960419,98.877815 211.960419,196.755646 211.960419,295.000000 
	C187.980347,295.000000 163.958832,295.000000 139.458710,294.683044 
	C138.695023,293.600006 138.409958,292.833984 137.602997,290.665466 
	C137.260147,293.129974 137.130066,294.064972 137.000000,295.000000 
	C135.933334,295.000000 134.866653,295.000000 133.458557,294.680847 
	C133.918304,290.314789 131.777374,290.320892 128.513977,291.124451 
	C129.084122,292.611359 129.542053,293.805695 130.000000,295.000000 
	C127.299988,295.000000 124.599968,295.000000 121.550812,294.729248 
	C121.712456,293.582977 122.223236,292.707489 123.297379,290.866364 
	C118.285233,291.368530 114.247665,291.619171 110.280838,292.288879 
	C109.393288,292.438721 108.753716,294.057495 107.999992,295.000000 
M50.406063,53.048649 
	C50.481392,52.851746 50.556721,52.654842 50.632046,52.457939 
	C50.373268,52.605618 50.114487,52.753296 49.758183,53.025238 
	C49.758183,53.025238 49.828018,53.273228 49.828018,53.273228 
	C49.828018,53.273228 50.096367,53.132500 50.406063,53.048649 
M65.045502,37.346920 
	C65.045502,37.346920 65.428032,37.259445 65.428032,37.259445 
	C65.428032,37.259445 65.165474,36.890041 64.599968,36.577492 
	C63.627197,36.765011 62.654427,36.952530 61.681656,37.140045 
	C61.812817,37.551876 61.943977,37.963703 62.075138,38.375530 
	C63.014511,37.971710 63.953884,37.567886 65.045502,37.346920 
M161.293442,205.127213 
	C159.999954,206.389175 158.706451,207.651138 157.412964,208.913101 
	C157.999527,209.347015 158.586090,209.780914 159.172653,210.214828 
	C160.115295,208.648941 161.062408,207.085709 161.992218,205.512238 
	C162.067154,205.385406 162.023209,205.188293 162.125778,204.955109 
	C162.125778,204.955109 161.974030,204.963058 161.293442,205.127213 
M141.070267,27.641966 
	C143.058701,28.474298 145.047119,29.306633 147.035553,30.138968 
	C147.222885,29.531546 147.410233,28.924122 147.597565,28.316700 
	C145.442749,27.827272 143.287949,27.337845 140.959351,26.166338 
	C138.888153,25.005491 136.816956,23.844645 134.745758,22.683798 
	C134.415329,23.456032 134.084915,24.228266 133.754501,25.000498 
	C136.131058,25.706779 138.507599,26.413061 141.070267,27.641966 
M80.000000,220.000000 
	C80.000000,220.000000 79.995178,219.996674 79.740746,219.439011 
	C78.177460,219.214371 76.614166,218.989731 75.050880,218.765076 
	C74.977882,219.291656 74.904884,219.818222 74.831879,220.344788 
	C77.152199,221.254654 79.472519,222.164505 81.792839,223.074371 
	C82.011742,222.611496 82.230644,222.148621 82.449547,221.685745 
	C81.634186,221.125458 80.818825,220.565170 80.000000,220.000000 
M72.291946,30.155153 
	C69.833809,31.154863 66.351921,31.112549 67.997650,36.164257 
	C69.663467,34.107880 71.329285,32.051502 73.798943,29.994495 
	C75.362022,29.765280 76.925095,29.536064 78.488174,29.306850 
	C78.370125,28.779318 78.252068,28.251787 78.134018,27.724255 
	C75.923088,26.680201 74.209976,27.429235 72.291946,30.155153 
M146.775711,217.963074 
	C149.752228,216.664185 152.728729,215.365295 155.705246,214.066406 
	C151.134415,212.538574 148.085312,214.185028 145.575073,218.119217 
	C145.374451,218.441284 145.173843,218.763351 144.973236,219.085419 
	C145.104721,219.109863 145.324615,219.193222 145.353760,219.149475 
	C145.595490,218.786728 145.801941,218.400482 146.775711,217.963074 
M47.137787,76.666664 
	C47.055683,77.105148 46.973576,77.543633 46.206982,78.076370 
	C42.746964,79.142097 43.833977,80.534927 45.992584,82.743546 
	C45.953621,83.487381 45.914654,84.231224 45.275860,85.348267 
	C43.381924,89.255829 40.831306,93.159462 45.404495,97.885742 
	C47.240009,104.975075 50.096649,106.481468 57.507309,104.267471 
	C58.682491,105.188957 59.857677,106.110451 61.032864,107.031937 
	C59.379723,104.468994 64.339798,100.376686 59.036613,98.088829 
	C59.441082,93.065521 59.845551,88.042206 60.839390,83.055428 
	C61.706581,83.009346 62.573772,82.963264 63.440968,82.917183 
	C63.506577,82.649704 63.572186,82.382225 63.637794,82.114746 
	C62.734348,81.737747 61.830898,81.360748 60.931808,80.023170 
	C61.394604,79.121826 61.857395,78.220474 62.320190,77.319130 
	C62.657085,77.688934 62.993984,78.058731 63.499657,78.637459 
	C63.499657,78.637459 63.798138,78.635735 63.798138,78.635735 
	C63.798138,78.635735 63.471920,78.296509 62.325184,79.234665 
	C62.009098,78.855202 61.693012,78.475731 62.303215,78.112381 
	C63.442974,77.426208 64.582733,76.740036 66.010925,75.880219 
	C64.568451,74.950577 63.756615,74.427368 62.961704,73.175323 
	C63.936878,71.074005 64.789597,68.905167 65.905556,66.881485 
	C83.274521,35.384735 127.842094,31.072901 149.635910,59.124119 
	C148.705048,59.111794 147.576218,59.439419 146.875763,59.031475 
	C142.615540,56.550373 138.487335,53.842640 134.228317,51.359352 
	C133.381882,50.865818 132.158951,51.017982 131.109634,50.872395 
	C133.426682,53.644211 135.655411,56.002998 138.388809,57.289841 
	C147.796402,61.718792 152.594849,69.490440 155.462708,79.008743 
	C156.541779,82.590088 158.131439,86.043480 159.791336,89.405609 
	C160.203064,90.239555 161.795044,90.490799 162.965057,91.831581 
	C162.923340,93.212227 162.881638,94.592873 162.498627,95.593407 
	C161.991684,95.054482 161.484756,94.515549 160.516769,93.486473 
	C160.516769,97.903549 160.516769,101.562752 160.516769,105.399406 
	C161.680176,104.647217 162.886383,103.867355 164.714447,103.452538 
	C167.772324,103.617081 170.830185,103.781616 174.656555,104.026825 
	C176.209320,104.213326 177.762085,104.399834 179.128174,104.563919 
	C179.128174,98.563469 179.224625,93.145500 178.997177,87.741165 
	C178.970917,87.116737 177.143829,86.568100 176.016327,85.152237 
	C175.852600,81.799301 176.441483,78.181679 175.374054,75.146561 
	C172.877777,68.048668 170.640381,60.468681 166.330444,54.506271 
	C161.736176,48.150494 155.478210,42.522987 148.893417,38.171051 
	C130.557953,26.052992 110.754486,22.591969 89.380676,29.923460 
	C69.294449,36.813293 56.026848,50.183128 48.352219,70.161797 
	C48.231133,71.109322 48.110046,72.056847 48.010258,73.589401 
	C47.839134,74.140900 47.668015,74.692406 47.193466,75.258499 
	C46.896038,75.468834 46.867584,75.714951 47.137787,76.666664 
M105.426926,19.017292 
	C102.568260,19.644375 99.709595,20.271458 96.850937,20.898540 
	C96.973984,21.488600 97.097023,22.078659 97.220070,22.668716 
	C102.040993,22.165171 106.861916,21.661623 111.682838,21.158077 
	C111.714890,20.813932 111.746941,20.469790 111.778992,20.125647 
	C109.933578,19.757608 108.088165,19.389572 105.426926,19.017292 
M58.218483,200.540237 
	C57.560471,201.405945 56.258083,202.959915 56.339329,203.035980 
	C58.054768,204.641998 59.926132,206.081451 61.766979,207.553497 
	C62.278755,206.989838 62.790531,206.426178 63.302307,205.862503 
	C61.818729,204.164764 60.335148,202.467026 58.218483,200.540237 
M69.082993,69.357491 
	C71.128693,67.933487 73.174400,66.509483 75.220100,65.085480 
	C74.823036,64.581520 74.425972,64.077560 74.028908,63.573601 
	C70.945366,63.724953 69.036812,65.354568 69.082993,69.357491 
M186.379929,105.504211 
	C186.634918,109.189209 187.787140,112.092194 193.621597,112.642357 
	C190.740494,109.490166 188.733246,107.294060 186.379929,105.504211 
M152.558304,34.837311 
	C153.810486,35.022346 155.062668,35.207386 156.314850,35.392422 
	C156.474228,34.770927 156.633591,34.149437 156.792969,33.527943 
	C155.189377,32.917973 153.585800,32.308006 151.982208,31.698038 
	C152.000443,32.639641 152.018677,33.581242 152.558304,34.837311 
M68.461220,215.696991 
	C69.731308,215.598114 71.001396,215.499237 72.271492,215.400345 
	C72.251328,215.021210 72.231171,214.642059 72.211014,214.262924 
	C70.467926,213.190445 68.724838,212.117950 66.150909,210.534271 
	C66.999641,212.586792 67.536560,213.885254 68.461220,215.696991 
M121.161217,22.347221 
	C122.019569,22.178936 122.877930,22.010653 124.992729,21.596035 
	C121.912964,20.112585 119.998833,19.190596 118.084694,18.268606 
	C117.735771,18.808340 117.386856,19.348076 117.037933,19.887812 
	C118.219116,20.706684 119.400307,21.525557 121.161217,22.347221 
M101.656143,45.580521 
	C102.292976,46.580612 102.929810,47.580708 103.566643,48.580799 
	C104.257111,48.088799 104.947586,47.596798 105.638054,47.104805 
	C104.510651,46.510937 103.383247,45.917065 101.656143,45.580521 
M54.516937,44.016655 
	C55.216511,44.576172 55.916084,45.135689 56.615658,45.695210 
	C57.381039,44.558819 58.146416,43.422432 58.911797,42.286045 
	C58.500443,41.906166 58.089088,41.526283 57.677734,41.146404 
	C56.664837,41.915859 55.651936,42.685314 54.516937,44.016655 
M120.441589,45.767029 
	C119.539894,46.379707 118.638206,46.992382 117.736511,47.605061 
	C117.845879,47.997173 117.955238,48.389290 118.064598,48.781403 
	C119.839989,48.301888 121.615387,47.822369 123.390778,47.342854 
	C122.598297,46.726524 121.805817,46.110199 120.441589,45.767029 
M167.455215,110.487366 
	C166.221436,109.691162 164.987640,108.894966 163.034348,107.634430 
	C163.394653,111.725464 163.887451,113.899467 167.455215,110.487366 
M187.131836,162.895554 
	C188.177521,162.221329 189.223190,161.547119 190.268860,160.872894 
	C190.119995,160.528625 189.971146,160.184357 189.822281,159.840103 
	C187.816544,160.594391 185.810806,161.348663 183.805069,162.102951 
	C183.926376,162.551666 184.047668,163.000381 184.168976,163.449097 
	C185.002899,163.395187 185.836823,163.341278 187.131836,162.895554 
M84.696686,55.521671 
	C85.103195,54.962616 85.509712,54.403557 85.916222,53.844498 
	C85.716698,53.588196 85.517174,53.331894 85.317650,53.075592 
	C83.974174,53.731720 82.630707,54.387852 81.287239,55.043980 
	C81.416183,55.414799 81.545135,55.785618 81.674088,56.156437 
	C82.515121,56.046356 83.356155,55.936279 84.696686,55.521671 
M89.649651,223.444611 
	C89.134384,224.077209 88.619125,224.709808 88.103859,225.342392 
	C88.855736,225.391235 89.607620,225.440079 90.359497,225.488907 
	C90.303261,224.797562 90.247017,224.106201 89.649651,223.444611 
M169.969406,194.160767 
	C170.608078,193.281937 171.246765,192.403091 171.885437,191.524246 
	C171.362091,191.303879 170.838760,191.083496 170.315414,190.863113 
	C170.069351,191.836029 169.823303,192.808960 169.969406,194.160767 
M174.852127,111.130333 
	C175.462418,109.911507 176.072708,108.692680 176.682999,107.473854 
	C176.210724,107.336777 175.738464,107.199707 175.266190,107.062630 
	C174.989136,108.324173 174.712082,109.585724 174.852127,111.130333 
M163.111786,39.752655 
	C163.412781,40.588310 163.713776,41.423965 164.014771,42.259624 
	C164.394485,42.033573 164.774200,41.807518 165.153915,41.581463 
	C164.635345,40.940174 164.116760,40.298889 163.111786,39.752655 
M112.500206,44.399120 
	C112.038246,44.957371 111.576286,45.515625 111.114326,46.073879 
	C111.807701,46.246353 112.501068,46.418823 113.194443,46.591297 
	C113.136414,45.875023 113.078384,45.158745 112.500206,44.399120 
M168.191803,48.260391 
	C168.142517,47.477394 168.093231,46.694397 168.043930,45.911400 
	C167.621246,46.023842 167.198547,46.136288 166.775864,46.248730 
	C167.067444,46.960850 167.359009,47.672974 168.191803,48.260391 
M136.763550,223.379578 
	C136.995911,222.741669 137.228256,222.103760 137.460602,221.465851 
	C136.710876,221.711823 135.961151,221.957779 135.211426,222.203735 
	C135.567627,222.660568 135.923828,223.117386 136.763550,223.379578 
M96.338051,226.472076 
	C95.557747,226.182526 94.777451,225.892975 93.997147,225.603424 
	C93.925629,226.132904 93.854111,226.662384 93.782593,227.191864 
	C94.723190,227.091766 95.663795,226.991653 96.338051,226.472076 
M92.321518,51.429352 
	C91.901031,51.154804 91.480537,50.880257 91.060051,50.605713 
	C90.915337,51.113941 90.770630,51.622166 90.625916,52.130398 
	C91.134796,52.055202 91.643684,51.980007 92.321518,51.429352 
M160.683899,37.382465 
	C160.179276,37.141457 159.674652,36.900444 159.170029,36.659431 
	C159.157532,37.080738 159.145050,37.502045 159.132568,37.923351 
	C159.681122,37.893078 160.229675,37.862801 160.683899,37.382465 
M126.203087,49.532669 
	C126.394936,49.100021 126.586784,48.667374 126.778625,48.234722 
	C126.511803,48.125698 126.244980,48.016674 125.978165,47.907650 
	C125.921478,48.399681 125.864799,48.891708 126.203087,49.532669 
M177.999741,61.957581 
	C177.999741,62.845360 177.999741,63.733139 177.999741,64.620918 
	C178.306610,64.592392 178.613480,64.563866 178.920349,64.535339 
	C178.758499,63.719875 178.596649,62.904411 177.999741,61.957581 
M82.529884,25.641367 
	C82.827682,26.155626 83.125481,26.669886 83.423279,27.184141 
	C83.765945,26.962046 84.108612,26.739952 84.451286,26.517860 
	C83.954308,26.183552 83.457329,25.849243 82.529884,25.641367 
M57.258102,109.849457 
	C57.623840,109.689705 57.989578,109.529953 58.355324,109.370201 
	C58.085155,109.057709 57.814987,108.745216 57.544819,108.432732 
	C57.369301,108.799126 57.193779,109.165520 57.258102,109.849457 
M90.630318,24.778324 
	C90.881622,24.955807 91.132927,25.133289 91.384232,25.310774 
	C91.222633,25.048454 91.061043,24.786135 90.630318,24.778324 
M115.151497,20.736885 
	C115.037788,20.894314 114.924080,21.051743 114.810364,21.209166 
	C114.976631,21.109861 115.142899,21.010557 115.151497,20.736885 
M125.850609,226.276276 
	C125.963181,226.120834 126.075752,225.965408 126.188324,225.809982 
	C126.023727,225.907867 125.859131,226.005753 125.850609,226.276276 
M131.146286,22.748947 
	C131.036987,22.899714 130.927704,23.050478 130.818405,23.201248 
	C130.977997,23.106293 131.137573,23.011339 131.146286,22.748947 
M100.144539,226.750031 
	C100.035851,226.900009 99.927155,227.049988 99.818466,227.199966 
	C99.977203,227.105515 100.135941,227.011063 100.144539,226.750031 
M44.248108,174.522247 
	C44.406998,174.553177 44.565884,174.584091 44.724770,174.615021 
	C44.585693,174.513519 44.446617,174.412033 44.248108,174.522247 
M43.365482,99.311935 
	C43.425011,99.287224 43.484539,99.262505 43.365482,99.311935 
M78.919815,58.259502 
	C79.058189,58.160614 79.196564,58.061726 79.334938,57.962841 
	C79.204155,57.994789 79.073372,58.026737 78.919815,58.259502 
M93.429855,22.951382 
	C93.429855,22.951382 93.531090,23.102016 93.531090,23.102016 
	C93.531090,23.102016 93.523384,22.914206 93.429855,22.951382 
M53.043072,46.433952 
	C53.043072,46.433952 53.076622,46.520370 53.043072,46.433952 
M148.406326,31.932468 
	C148.406326,31.932468 148.540909,32.125263 148.540909,32.125263 
	C148.540909,32.125263 148.526337,31.881159 148.406326,31.932468 
M54.151241,199.286865 
	C54.075314,199.426392 53.999386,199.565918 53.923458,199.705444 
	C54.042313,199.644333 54.161163,199.583221 54.151241,199.286865 
M181.493927,74.252800 
	C181.431702,74.200157 181.369492,74.147514 181.493927,74.252800 
M43.892197,166.489548 
	C43.892197,166.489548 43.955307,166.417389 43.892197,166.489548 
M61.438519,40.492172 
	C61.438519,40.492172 61.511780,40.455589 61.438519,40.492172 
M67.473244,71.499580 
	C67.473244,71.499580 67.513519,71.484451 67.473244,71.499580 
M19.494839,74.544846 
	C19.494839,74.544846 19.466568,74.483444 19.494839,74.544846 
M50.498543,48.474312 
	C50.498543,48.474312 50.512596,48.514313 50.498543,48.474312 
M128.503860,226.456757 
	C128.503860,226.456757 128.528564,226.513550 128.503860,226.456757 
M186.501953,102.468536 
	C186.501953,102.468536 186.520416,102.514923 186.501953,102.468536 
M171.498474,112.577950 
	C171.498474,112.577950 171.442368,112.477722 171.498474,112.577950 
M131.536423,224.501556 
	C131.536423,224.501556 131.486801,224.520782 131.536423,224.501556 
M191.501419,156.468353 
	C191.501419,156.468353 191.521194,156.518509 191.501419,156.468353 
M176.498566,174.536377 
	C176.498566,174.536377 176.479645,174.488052 176.498566,174.536377 
M73.495880,217.548370 
	C73.495880,217.548370 73.471428,217.490646 73.495880,217.548370 
M178.473953,175.618210 
	C178.473953,175.618210 178.570847,175.452698 178.570847,175.452698 
	C178.570847,175.452698 178.378006,175.474579 178.473953,175.618210 
M64.513298,211.407242 
	C64.513298,211.407242 64.572884,211.510925 64.513298,211.407242 
M88.501015,24.525723 
	C88.501015,24.525723 88.486633,24.484268 88.501015,24.525723 
M62.515522,209.438995 
	C62.515522,209.438995 62.558830,209.520218 62.515522,209.438995 
M164.430786,203.490448 
	C164.430786,203.490448 164.512894,203.447433 164.430786,203.490448 
M127.489830,23.565765 
	C127.489830,23.565765 127.440933,23.474424 127.489830,23.565765 
z"/>
<path fill="#A83CD2" opacity="1.000000" stroke="none" 
	d="
M178.509109,54.496799 
	C171.883881,40.873466 161.265518,31.086840 148.239059,23.910891 
	C109.830780,2.752704 63.309319,18.072695 43.573631,54.137459 
	C43.559082,54.517246 43.496124,54.488766 43.496124,54.488766 
	C41.638771,58.408447 39.781418,62.328129 37.613838,66.873787 
	C36.247883,72.336426 35.192158,77.173088 34.136429,82.009750 
	C34.047241,83.076416 33.958057,84.143074 33.799522,85.900024 
	C33.773056,88.056992 33.815941,89.523666 33.858822,90.990349 
	C33.805874,91.152649 33.752926,91.314957 33.640636,92.095657 
	C32.679054,96.455795 31.776808,100.197540 30.512854,104.077507 
	C27.111837,103.802658 24.072531,103.389572 21.021746,102.746368 
	C20.926342,102.183029 20.717331,101.976257 20.383240,101.895927 
	C20.045845,98.523750 19.708450,95.151573 18.797783,91.992569 
	C18.224510,92.205750 18.165953,92.184052 18.165955,92.184052 
	C18.450035,92.456726 18.734118,92.729401 19.507792,92.252274 
	C19.954187,88.666420 19.910990,85.830360 19.867792,82.994308 
	C19.908434,82.830902 19.949076,82.667496 20.038811,81.965347 
	C20.093969,80.614029 20.100037,79.801460 20.106106,78.988892 
	C20.346329,78.896400 20.503950,78.727043 20.747215,78.057343 
	C20.892162,77.242256 20.868866,76.850632 20.845570,76.459015 
	C20.945276,75.541183 21.044985,74.623360 21.387352,73.093796 
	C22.082676,69.980988 22.535343,67.479897 22.988012,64.978813 
	C24.117781,62.205509 25.316967,59.458157 26.365295,56.654404 
	C30.902651,44.519249 38.416325,34.223385 47.190952,25.001324 
	C51.446949,20.528303 56.961945,16.884985 62.527592,14.111483 
	C71.152061,9.813695 80.312248,6.592735 89.227074,2.871581 
	C89.790733,2.636309 90.197281,2.024662 90.338455,1.294055 
	C103.354225,1.000000 116.708458,1.000000 130.531342,1.000000 
	C131.285355,1.635819 131.475616,2.760409 131.869736,2.837074 
	C148.322113,6.037464 162.238663,14.308657 174.367325,25.344339 
	C180.005737,30.474632 184.551636,37.035286 188.675461,43.530010 
	C192.161026,49.019554 194.323730,55.349064 197.265686,61.909424 
	C197.934555,63.355949 198.409668,64.199883 198.884796,65.043808 
	C198.906860,65.480782 198.928940,65.917755 198.992035,66.932602 
	C199.388489,68.102386 199.743912,68.694305 200.099335,69.286232 
	C200.081146,69.466530 200.062958,69.646828 200.145111,70.111755 
	C200.245453,70.396400 200.191360,70.436157 200.191360,70.436157 
	C200.414841,71.653320 200.638306,72.870483 200.913544,74.851746 
	C201.081741,76.425224 201.198166,77.234589 201.314575,78.043961 
	C201.457718,78.484894 201.600830,78.925819 201.800720,80.064728 
	C201.949661,81.519234 202.041809,82.275764 202.133942,83.032303 
	C202.100876,86.052338 202.067825,89.072372 202.019608,92.974915 
	C201.644470,96.890236 201.284485,99.923058 200.924500,102.955879 
	C194.667816,107.294464 190.256104,105.455437 188.425598,97.013771 
	C188.016632,90.516548 187.585541,84.742035 187.154465,78.967522 
	C184.475067,70.945816 181.795670,62.924118 178.797287,54.728775 
	C178.478317,54.555126 178.509109,54.496799 178.509109,54.496799 
z"/>
<path fill="#060607" opacity="1.000000" stroke="none" 
	d="
M74.428467,295.000000 
	C73.294205,294.039276 72.777817,292.799438 71.848152,292.168671 
	C68.680672,290.019531 67.892868,284.152527 71.052673,281.293152 
	C72.818886,283.301819 74.054535,285.081696 75.290176,286.861572 
	C72.962753,288.440582 73.646896,289.320190 75.805008,290.492188 
	C77.401009,291.358887 78.591377,292.972504 79.981232,294.626709 
	C78.285645,295.000000 76.571281,295.000000 74.428467,295.000000 
z"/>
<path fill="#060607" opacity="1.000000" stroke="none" 
	d="
M108.463181,295.000000 
	C108.753716,294.057495 109.393288,292.438721 110.280838,292.288879 
	C114.247665,291.619171 118.285233,291.368530 123.297379,290.866364 
	C122.223236,292.707489 121.712456,293.582977 121.100830,294.729248 
	C116.975456,295.000000 112.950912,295.000000 108.463181,295.000000 
z"/>
<path fill="#060607" opacity="1.000000" stroke="none" 
	d="
M98.428459,295.000000 
	C99.098999,293.445374 100.197998,291.890717 101.296997,290.336090 
	C102.190437,291.637268 103.083870,292.938446 103.988647,294.619812 
	C102.285645,295.000000 100.571281,295.000000 98.428459,295.000000 
z"/>
<path fill="#060607" opacity="1.000000" stroke="none" 
	d="
M87.449982,295.000000 
	C88.805634,290.591949 89.872879,290.517853 95.852448,294.697845 
	C93.299988,295.000000 90.599968,295.000000 87.449982,295.000000 
z"/>
<path fill="#060607" opacity="1.000000" stroke="none" 
	d="
M130.375000,295.000000 
	C129.542053,293.805695 129.084122,292.611359 128.513977,291.124451 
	C131.777374,290.320892 133.918304,290.314789 133.058563,294.680847 
	C132.250000,295.000000 131.500000,295.000000 130.375000,295.000000 
z"/>
<path fill="#060607" opacity="1.000000" stroke="none" 
	d="
M137.333328,295.000000 
	C137.130066,294.064972 137.260147,293.129974 137.602997,290.665466 
	C138.409958,292.833984 138.695023,293.600006 138.990051,294.683044 
	C138.555557,295.000000 138.111099,295.000000 137.333328,295.000000 
z"/>
<path fill="#A93CD4" opacity="1.000000" stroke="none" 
	d="
M75.739014,286.901001 
	C74.054535,285.081696 72.818886,283.301819 71.380936,281.262512 
	C71.110741,280.363831 71.042854,279.724609 70.973808,278.690460 
	C71.184036,277.908203 71.395432,277.520874 71.606812,277.133545 
	C73.873230,273.873779 77.131691,272.959076 80.911598,272.995697 
	C88.370605,273.067963 95.830803,273.016998 104.022285,273.016998 
	C104.022285,264.701080 104.022285,256.317841 104.035065,247.097229 
	C103.989334,245.502457 103.930817,244.745071 103.872299,243.987701 
	C103.915871,243.547455 103.959442,243.107208 104.023758,241.896057 
	C103.986504,238.416428 103.928490,235.707687 103.870483,232.998962 
	C103.912903,232.834381 103.955322,232.669785 104.002823,232.000671 
	C103.962509,231.326538 103.917130,231.156937 103.871750,230.987350 
	C103.916870,230.546463 103.961983,230.105576 104.027481,229.003754 
	C103.994011,227.891953 103.940147,227.441101 103.886292,226.990234 
	C103.886292,225.365051 103.886292,223.739868 103.886292,221.778427 
	C81.515999,218.431320 64.396996,207.391815 53.074593,186.945129 
	C52.173454,185.244095 51.543453,184.120163 50.913456,182.996216 
	C48.787865,174.732773 46.662273,166.469315 44.535847,158.202621 
	C41.477673,157.133133 37.752460,155.830368 33.649956,154.045471 
	C32.991234,153.006470 32.709812,152.449615 32.428391,151.892761 
	C32.353466,145.697876 33.868172,144.013214 39.612045,144.004608 
	C50.076283,143.988937 60.540558,144.000153 71.682968,144.000153 
	C71.682968,141.898743 71.683090,140.130249 71.682945,138.361755 
	C71.681671,122.719872 71.818726,107.076370 71.635460,91.436623 
	C71.487526,78.812630 76.049187,68.393578 85.957413,60.716385 
	C92.091003,55.963890 99.127357,53.116413 107.239128,52.901649 
	C117.655060,52.625881 127.162712,54.141891 135.719696,60.880981 
	C145.389542,68.496490 149.959015,78.382881 150.217636,90.245964 
	C150.565720,106.212868 150.301941,122.193100 150.300812,138.167618 
	C150.300690,139.950104 150.300797,141.732605 150.300797,144.000198 
	C161.472000,144.000198 172.086258,143.879044 182.693069,144.105698 
	C184.736053,144.149338 186.749878,145.556610 189.024445,146.919708 
	C189.518448,147.983917 189.765152,148.463226 190.011856,148.942551 
	C190.011856,148.942551 189.977676,148.993835 189.921982,149.348099 
	C189.203979,151.450150 188.541656,153.197937 187.879333,154.945724 
	C184.361328,156.019363 180.843323,157.093018 176.401337,158.448654 
	C176.321777,159.319366 176.147110,161.230850 175.952606,163.966858 
	C175.429489,167.504395 174.926224,170.217422 174.422943,172.930435 
	C174.228271,173.647278 174.033615,174.364105 173.544708,175.607254 
	C172.711136,178.034927 172.171814,179.936295 171.632492,181.837677 
	C168.796295,186.617249 165.960068,191.396820 162.789368,196.593842 
	C162.201477,197.419876 161.948059,197.828461 161.694641,198.237045 
	C150.776978,210.635925 137.444061,218.765198 120.908394,221.099075 
	C118.244461,221.475082 117.585396,222.831894 117.946495,225.954742 
	C118.001595,227.496002 118.057976,228.252258 118.114349,229.008530 
	C118.114349,243.622620 118.114349,258.236725 118.114349,273.015991 
	C126.285103,273.015991 134.076569,272.976440 141.867371,273.031586 
	C146.166748,273.062073 149.690002,274.357605 150.652679,279.946899 
	C150.316833,281.761047 150.012253,282.820953 149.707672,283.880829 
	C148.916534,284.613678 148.125412,285.346497 147.181458,286.359314 
	C147.028641,286.639313 146.966522,286.591309 146.966522,286.591309 
	C140.498154,286.729126 134.030014,286.970459 127.561371,286.984680 
	C110.436981,287.022400 93.312370,286.961853 75.739014,286.901001 
M137.030243,104.501778 
	C137.028671,101.006409 137.046005,97.510918 137.022263,94.015701 
	C136.911972,77.778038 125.826424,65.933647 110.837112,66.024292 
	C96.058716,66.113670 85.037354,77.904617 84.994461,93.822243 
	C84.939301,114.294930 84.939102,134.768005 84.995338,155.240692 
	C85.039070,171.162750 96.081367,182.913742 110.912575,182.973022 
	C125.730507,183.032242 136.934387,171.279068 137.006577,155.434692 
	C137.082413,138.790451 137.027908,122.145607 137.030243,104.501778 
M87.353127,203.243469 
	C98.145576,208.659271 109.455948,210.303421 121.321510,207.910355 
	C143.716202,203.393753 160.951645,184.317993 162.784927,161.803879 
	C162.906219,160.314316 162.190308,157.795715 161.156693,157.332047 
	C155.316849,154.712357 150.477570,157.513184 149.297760,163.777985 
	C145.736282,182.689270 129.897614,195.996506 110.958717,195.989410 
	C92.039841,195.982330 76.011299,182.729248 72.849922,163.674973 
	C71.944214,158.216034 70.080109,156.401505 64.669220,156.880768 
	C58.838413,157.397232 58.450714,157.475800 59.351482,163.373184 
	C62.043041,180.994995 71.032570,194.254562 87.353127,203.243469 
z"/>
<path fill="#A73BD1" opacity="1.000000" stroke="none" 
	d="
M46.891468,77.982117 
	C46.973576,77.543633 47.055683,77.105148 47.293854,76.181549 
	C47.449917,75.696426 47.496887,75.243904 47.496887,75.243904 
	C47.668015,74.692406 47.839134,74.140900 48.247440,73.069138 
	C48.630363,71.692802 48.776108,70.836739 48.921852,69.980667 
	C56.026848,50.183128 69.294449,36.813293 89.380676,29.923460 
	C110.754486,22.591969 130.557953,26.052992 148.893417,38.171051 
	C155.478210,42.522987 161.736176,48.150494 166.330444,54.506271 
	C170.640381,60.468681 172.877777,68.048668 175.374054,75.146561 
	C176.441483,78.181679 175.852600,81.799301 176.047150,86.035889 
	C176.323059,92.720482 178.089691,98.717133 173.888062,103.946152 
	C170.830185,103.781616 167.772324,103.617081 164.308258,102.884705 
	C163.548019,100.202423 163.193970,98.087967 162.839935,95.973518 
	C162.881638,94.592873 162.923340,93.212227 162.947510,91.012253 
	C162.657425,88.397018 162.379608,86.601913 162.113251,84.805099 
	C160.652145,74.948845 157.047775,66.075562 150.154510,58.709023 
	C127.842094,31.072901 83.274521,35.384735 65.905556,66.881485 
	C64.789597,68.905167 63.936878,71.074005 62.700630,73.754463 
	C62.085350,75.587822 61.731140,76.842049 61.376930,78.096268 
	C61.693012,78.475731 62.009098,78.855202 62.864494,78.799881 
	C63.403801,78.365089 63.330879,78.428535 63.330879,78.428535 
	C62.993984,78.058731 62.657085,77.688934 62.320190,77.319130 
	C61.857395,78.220474 61.394604,79.121826 60.705032,80.685509 
	C60.402180,81.904861 60.326099,82.461884 60.250023,83.018898 
	C59.845551,88.042206 59.441082,93.065521 59.020912,98.882462 
	C58.314842,101.105942 57.624477,102.535805 56.934113,103.965660 
	C50.096649,106.481468 47.240009,104.975075 45.439377,97.096069 
	C45.608074,92.529282 45.741882,88.752174 45.875687,84.975060 
	C45.914654,84.231224 45.953621,83.487381 46.119621,82.061722 
	C46.461594,80.247299 46.676529,79.114708 46.891468,77.982117 
z"/>
<path fill="#0C0A0D" opacity="1.000000" stroke="none" 
	d="
M149.895203,58.916573 
	C157.047775,66.075562 160.652145,74.948845 162.113251,84.805099 
	C162.379608,86.601913 162.657425,88.397018 162.887238,90.601402 
	C161.795044,90.490799 160.203064,90.239555 159.791336,89.405609 
	C158.131439,86.043480 156.541779,82.590088 155.462708,79.008743 
	C152.594849,69.490440 147.796402,61.718792 138.388809,57.289841 
	C135.655411,56.002998 133.426682,53.644211 131.109634,50.872395 
	C132.158951,51.017982 133.381882,50.865818 134.228317,51.359352 
	C138.487335,53.842640 142.615540,56.550373 146.875763,59.031475 
	C147.576218,59.439419 148.705048,59.111794 149.895203,58.916573 
z"/>
<path fill="#100F10" opacity="1.000000" stroke="none" 
	d="
M30.874561,103.939278 
	C31.776808,100.197540 32.679054,96.455795 33.711891,92.341637 
	C38.066803,95.424255 37.802811,105.610420 33.373051,110.082031 
	C29.719397,113.770210 22.508781,113.727112 19.500872,109.466034 
	C18.096746,107.476913 14.508706,104.338158 20.019003,101.955948 
	C20.717331,101.976257 20.926342,102.183029 20.845232,103.021286 
	C19.741928,107.241005 22.414896,109.263474 25.005241,109.324883 
	C27.421709,109.382164 29.889946,107.255737 32.335392,106.090523 
	C31.848448,105.373444 31.361504,104.656357 30.874561,103.939278 
z"/>
<path fill="#110F12" opacity="1.000000" stroke="none" 
	d="
M186.869568,78.883209 
	C187.585541,84.742035 188.016632,90.516548 188.318527,96.668571 
	C186.323166,91.781059 184.326187,86.556244 182.686584,81.221588 
	C182.296661,79.952980 183.102737,78.316788 183.435928,76.407005 
	C184.850189,77.481323 185.717422,78.140106 186.869568,78.883209 
z"/>
<path fill="#0C0A0D" opacity="1.000000" stroke="none" 
	d="
M34.431030,82.038597 
	C35.192158,77.173088 36.247883,72.336426 37.580399,67.255127 
	C39.026077,66.407440 40.194965,65.804382 41.682274,65.100174 
	C42.000690,64.999031 42.021511,65.014664 42.021511,65.014664 
	C42.227127,65.273956 42.667236,65.645164 42.604591,65.776421 
	C40.006439,71.220207 37.363205,76.642479 34.431030,82.038597 
z"/>
<path fill="#0C0A0D" opacity="1.000000" stroke="none" 
	d="
M174.272308,103.986488 
	C178.089691,98.717133 176.323059,92.720482 176.114822,86.451935 
	C177.143829,86.568100 178.970917,87.116737 178.997177,87.741165 
	C179.224625,93.145500 179.128174,98.563469 179.128174,104.563919 
	C177.762085,104.399834 176.209320,104.213326 174.272308,103.986488 
M177.496918,101.472900 
	C177.496918,101.472900 177.511063,101.514832 177.496918,101.472900 
z"/>
<path fill="#0F0E0F" opacity="1.000000" stroke="none" 
	d="
M201.120026,103.241837 
	C201.284485,99.923058 201.644470,96.890236 202.078918,93.424316 
	C207.264160,96.819031 207.027191,105.142761 201.351807,108.919312 
	C201.001312,109.001343 200.988174,108.993515 200.988159,108.993515 
	C201.097290,107.171608 201.206421,105.349709 201.120026,103.241837 
z"/>
<path fill="#0B090C" opacity="1.000000" stroke="none" 
	d="
M105.834839,19.019413 
	C108.088165,19.389572 109.933578,19.757608 111.778992,20.125647 
	C111.746941,20.469790 111.714890,20.813932 111.682838,21.158077 
	C106.861916,21.661623 102.040993,22.165171 97.220070,22.668716 
	C97.097023,22.078659 96.973984,21.488600 96.850937,20.898540 
	C99.709595,20.271458 102.568260,19.644375 105.834839,19.019413 
z"/>
<path fill="#110F12" opacity="1.000000" stroke="none" 
	d="
M178.508118,54.535889 
	C178.009964,56.145840 177.482025,57.775024 176.954071,59.404209 
	C176.342651,59.548615 175.731232,59.693020 175.119797,59.837425 
	C173.760880,56.810043 172.401962,53.782658 171.021515,50.377663 
	C171.000000,50.000053 170.994766,50.007767 170.994766,50.007767 
	C173.243011,51.551083 175.491257,53.094398 178.124298,54.567257 
	C178.509109,54.496799 178.478317,54.555126 178.508118,54.535889 
z"/>
<path fill="#0D0B0E" opacity="1.000000" stroke="none" 
	d="
M171.880524,181.943634 
	C172.171814,179.936295 172.711136,178.034927 173.532181,175.887909 
	C174.623627,176.323654 175.433365,177.005051 176.640778,177.856873 
	C177.038467,178.027298 177.197922,178.223267 177.197922,178.223267 
	C176.267899,181.276398 175.337891,184.329544 174.407867,187.382675 
	C174.065659,187.432175 173.723465,187.481659 173.381256,187.531143 
	C172.963699,185.703949 172.546143,183.876770 171.880524,181.943634 
z"/>
<path fill="#0D0B0D" opacity="1.000000" stroke="none" 
	d="
M58.535027,200.654755 
	C60.335148,202.467026 61.818729,204.164764 63.302307,205.862503 
	C62.790531,206.426178 62.278755,206.989838 61.766979,207.553497 
	C59.926132,206.081451 58.054768,204.641998 56.339329,203.035980 
	C56.258083,202.959915 57.560471,201.405945 58.535027,200.654755 
z"/>
<path fill="#19111C" opacity="1.000000" stroke="none" 
	d="
M45.575775,85.161667 
	C45.741882,88.752174 45.608074,92.529282 45.339836,96.705490 
	C40.831306,93.159462 43.381924,89.255829 45.575775,85.161667 
z"/>
<path fill="#0D0B0E" opacity="1.000000" stroke="none" 
	d="
M174.762604,172.807678 
	C174.926224,170.217422 175.429489,167.504395 176.019287,164.392670 
	C180.929382,166.736084 180.687897,168.827255 174.762604,172.807678 
z"/>
<path fill="#0D0B0E" opacity="1.000000" stroke="none" 
	d="
M145.977386,217.980316 
	C148.085312,214.185028 151.134415,212.538574 155.705246,214.066406 
	C152.728729,215.365295 149.752228,216.664185 146.387451,217.981506 
	C145.999207,217.999939 145.977386,217.980316 145.977386,217.980316 
z"/>
<path fill="#0C0A0D" opacity="1.000000" stroke="none" 
	d="
M162.669281,95.783463 
	C163.193970,98.087967 163.548019,100.202423 163.997314,102.702187 
	C162.886383,103.867355 161.680176,104.647217 160.516769,105.399406 
	C160.516769,101.562752 160.516769,97.903549 160.516769,93.486473 
	C161.484756,94.515549 161.991684,95.054482 162.669281,95.783463 
z"/>
<path fill="#0D0B0D" opacity="1.000000" stroke="none" 
	d="
M50.548500,182.998169 
	C51.543453,184.120163 52.173454,185.244095 52.840984,186.688629 
	C52.119522,188.926376 51.360531,190.843521 50.207764,193.755310 
	C49.418041,190.060776 48.747578,186.924179 48.038620,183.393799 
	C48.000126,183.000000 47.993889,182.999634 47.993889,182.999634 
	C48.723774,182.999802 49.453663,182.999954 50.548500,182.998169 
z"/>
<path fill="#060607" opacity="1.000000" stroke="none" 
	d="
M146.967651,286.992188 
	C146.966522,286.591309 147.028641,286.639313 146.993317,286.626160 
	C148.981491,287.071716 151.004974,287.530396 153.028442,287.989105 
	C153.196899,288.478424 153.365341,288.967712 153.533783,289.457031 
	C151.217285,290.362701 148.900803,291.268341 146.292145,292.087006 
	C146.000000,292.000000 145.997559,291.997559 145.997559,291.997559 
	C146.321304,290.462738 146.645050,288.927917 146.967651,286.992188 
z"/>
<path fill="#0C0A0D" opacity="1.000000" stroke="none" 
	d="
M68.869064,69.131317 
	C69.036812,65.354568 70.945366,63.724953 74.028908,63.573601 
	C74.425972,64.077560 74.823036,64.581520 75.220100,65.085480 
	C73.174400,66.509483 71.128693,67.933487 68.869064,69.131317 
z"/>
<path fill="#0D0B0E" opacity="1.000000" stroke="none" 
	d="
M161.903381,198.579178 
	C161.948059,197.828461 162.201477,197.419876 162.676300,196.911697 
	C164.591888,196.812119 166.286072,196.812119 168.808823,196.812119 
	C168.254227,198.144333 167.716232,200.304993 167.301620,200.281555 
	C165.551758,200.182678 163.838669,199.432983 161.903381,198.579178 
z"/>
<path fill="#0F0E0F" opacity="1.000000" stroke="none" 
	d="
M186.552979,105.301086 
	C188.733246,107.294060 190.740494,109.490166 193.621597,112.642357 
	C187.787140,112.092194 186.634918,109.189209 186.552979,105.301086 
z"/>
<path fill="#0B0A0B" opacity="1.000000" stroke="none" 
	d="
M57.220711,104.116562 
	C57.624477,102.535805 58.314842,101.105942 59.083260,99.333664 
	C64.339798,100.376686 59.379723,104.468994 61.032864,107.031937 
	C59.857677,106.110451 58.682491,105.188957 57.220711,104.116562 
z"/>
<path fill="#0B090C" opacity="1.000000" stroke="none" 
	d="
M72.995094,29.995121 
	C71.329285,32.051502 69.663467,34.107880 67.997650,36.164257 
	C66.351921,31.112549 69.833809,31.154863 72.645966,30.077560 
	C72.999985,29.999968 72.995094,29.995119 72.995094,29.995121 
z"/>
<path fill="#121012" opacity="1.000000" stroke="none" 
	d="
M19.563465,83.134048 
	C19.910990,85.830360 19.954187,88.666420 19.919552,91.828812 
	C16.117277,89.426262 16.323465,86.439552 19.563465,83.134048 
z"/>
<path fill="#0D0B0D" opacity="1.000000" stroke="none" 
	d="
M80.003464,220.004883 
	C80.818825,220.565170 81.634186,221.125458 82.449547,221.685745 
	C82.230644,222.148621 82.011742,222.611496 81.792839,223.074371 
	C79.472519,222.164505 77.152199,221.254654 74.831879,220.344788 
	C74.904884,219.818222 74.977882,219.291656 75.050880,218.765076 
	C76.614166,218.989731 78.177460,219.214371 79.824501,219.742966 
	C79.908257,220.046921 80.003464,220.004883 80.003464,220.004883 
z"/>
<path fill="#0C0A0D" opacity="1.000000" stroke="none" 
	d="
M43.544209,54.485535 
	C48.603512,56.537804 48.746262,57.266090 44.541164,62.585270 
	C44.223969,59.856136 43.965328,57.630787 43.601402,54.947102 
	C43.496124,54.488766 43.559082,54.517246 43.544209,54.485535 
z"/>
<path fill="#0B090C" opacity="1.000000" stroke="none" 
	d="
M140.884155,27.119343 
	C138.507599,26.413061 136.131058,25.706779 133.754501,25.000498 
	C134.084915,24.228266 134.415329,23.456032 134.745758,22.683798 
	C136.816956,23.844645 138.888153,25.005491 140.984558,26.575638 
	C141.009781,26.984938 140.884155,27.119345 140.884155,27.119343 
z"/>
<path fill="#0B090C" opacity="1.000000" stroke="none" 
	d="
M152.297607,34.680077 
	C152.018677,33.581242 152.000443,32.639641 151.982208,31.698036 
	C153.585800,32.308006 155.189377,32.917973 156.792969,33.527943 
	C156.633591,34.149437 156.474228,34.770927 156.314850,35.392422 
	C155.062668,35.207386 153.810486,35.022346 152.297607,34.680077 
z"/>
<path fill="#0D0B0D" opacity="1.000000" stroke="none" 
	d="
M68.267349,215.440353 
	C67.536560,213.885254 66.999641,212.586792 66.150909,210.534271 
	C68.724838,212.117950 70.467926,213.190445 72.211014,214.262924 
	C72.231171,214.642059 72.251328,215.021210 72.271492,215.400345 
	C71.001396,215.499237 69.731308,215.598114 68.267349,215.440353 
z"/>
<path fill="#0B090C" opacity="1.000000" stroke="none" 
	d="
M120.871353,22.345825 
	C119.400307,21.525557 118.219116,20.706684 117.037933,19.887812 
	C117.386856,19.348076 117.735771,18.808340 118.084694,18.268606 
	C119.998833,19.190596 121.912964,20.112585 124.992729,21.596035 
	C122.877930,22.010653 122.019569,22.178936 120.871353,22.345825 
z"/>
<path fill="#0D0B0E" opacity="1.000000" stroke="none" 
	d="
M162.034531,205.023849 
	C162.023209,205.188293 162.067154,205.385406 161.992218,205.512238 
	C161.062408,207.085709 160.115295,208.648941 159.172653,210.214828 
	C158.586090,209.780914 157.999527,209.347015 157.412964,208.913101 
	C158.706451,207.651138 159.999954,206.389175 161.647598,205.061600 
	C162.001755,204.995987 162.034531,205.023849 162.034531,205.023849 
z"/>
<path fill="#0C0A0D" opacity="1.000000" stroke="none" 
	d="
M101.955994,45.451859 
	C103.383247,45.917065 104.510651,46.510937 105.638054,47.104805 
	C104.947586,47.596798 104.257111,48.088799 103.566643,48.580799 
	C102.929810,47.580708 102.292976,46.580612 101.955994,45.451859 
z"/>
<path fill="#0C0A0D" opacity="1.000000" stroke="none" 
	d="
M54.577988,43.735714 
	C55.651936,42.685314 56.664837,41.915859 57.677734,41.146404 
	C58.089088,41.526283 58.500443,41.906166 58.911797,42.286045 
	C58.146416,43.422432 57.381039,44.558819 56.615654,45.695206 
	C55.916084,45.135689 55.216511,44.576172 54.577988,43.735714 
z"/>
<path fill="#0C0A0D" opacity="1.000000" stroke="none" 
	d="
M120.727463,45.630451 
	C121.805817,46.110199 122.598297,46.726524 123.390778,47.342850 
	C121.615387,47.822369 119.839989,48.301888 118.064598,48.781403 
	C117.955238,48.389290 117.845879,47.997173 117.736511,47.605061 
	C118.638206,46.992382 119.539894,46.379707 120.727463,45.630451 
z"/>
<path fill="#121012" opacity="1.000000" stroke="none" 
	d="
M22.704052,65.170135 
	C22.535343,67.479897 22.082676,69.980988 21.367481,72.747559 
	C20.509508,72.307930 19.266617,71.339005 19.428234,70.942375 
	C20.220333,68.998451 21.386265,67.206871 22.704052,65.170135 
z"/>
<path fill="#0C0A0D" opacity="1.000000" stroke="none" 
	d="
M167.411621,110.774200 
	C163.887451,113.899467 163.394653,111.725464 163.034348,107.634430 
	C164.987640,108.894966 166.221436,109.691162 167.411621,110.774200 
z"/>
<path fill="#0D0B0E" opacity="1.000000" stroke="none" 
	d="
M186.901276,163.091461 
	C185.836823,163.341278 185.002899,163.395187 184.168976,163.449097 
	C184.047668,163.000381 183.926376,162.551666 183.805069,162.102951 
	C185.810806,161.348663 187.816544,160.594391 189.822281,159.840103 
	C189.971146,160.184357 190.119995,160.528625 190.268860,160.872894 
	C189.223190,161.547119 188.177521,162.221329 186.901276,163.091461 
z"/>
<path fill="#0D0B0D" opacity="1.000000" stroke="none" 
	d="
M103.627365,233.170929 
	C103.928490,235.707687 103.986504,238.416428 103.957031,241.569336 
	C101.903358,239.224304 100.495529,236.403839 103.627365,233.170929 
z"/>
<path fill="#1A161B" opacity="1.000000" stroke="none" 
	d="
M202.322113,83.280914 
	C202.041809,82.275764 201.949661,81.519234 201.933258,80.387100 
	C203.426132,81.820709 204.843246,83.629913 206.260361,85.439117 
	C205.724365,85.826675 205.188370,86.214233 204.652374,86.601784 
	C203.938339,85.577698 203.224304,84.553612 202.322113,83.280914 
z"/>
<path fill="#0B090C" opacity="1.000000" stroke="none" 
	d="
M141.071457,26.916677 
	C143.287949,27.337845 145.442749,27.827272 147.597565,28.316700 
	C147.410233,28.924122 147.222885,29.531546 147.035553,30.138968 
	C145.047119,29.306633 143.058701,28.474298 140.977203,27.380655 
	C140.884155,27.119345 141.009781,26.984938 141.071457,26.916677 
z"/>
<path fill="#0B090C" opacity="1.000000" stroke="none" 
	d="
M73.001968,30.002375 
	C74.209976,27.429235 75.923088,26.680201 78.134018,27.724255 
	C78.252068,28.251787 78.370125,28.779318 78.488174,29.306850 
	C76.925095,29.536064 75.362022,29.765280 73.397018,29.994808 
	C72.995094,29.995119 72.999985,29.999968 73.001968,30.002375 
z"/>
<path fill="#0D0B0E" opacity="1.000000" stroke="none" 
	d="
M188.234451,154.954391 
	C188.541656,153.197937 189.203979,151.450150 189.950928,149.358673 
	C190.841187,150.580124 191.646805,152.145264 192.761093,154.310074 
	C190.920807,154.598145 189.755188,154.780609 188.234451,154.954391 
z"/>
<path fill="#0C0A0D" opacity="1.000000" stroke="none" 
	d="
M84.446938,55.673935 
	C83.356155,55.936279 82.515121,56.046356 81.674088,56.156437 
	C81.545135,55.785618 81.416183,55.414799 81.287239,55.043980 
	C82.630707,54.387852 83.974174,53.731720 85.317650,53.075592 
	C85.517174,53.331894 85.716698,53.588196 85.916222,53.844498 
	C85.509712,54.403557 85.103195,54.962616 84.446938,55.673935 
z"/>
<path fill="#060607" opacity="1.000000" stroke="none" 
	d="
M150.058594,283.893799 
	C150.012253,282.820953 150.316833,281.761047 150.794312,280.325378 
	C151.742310,280.846954 152.517426,281.744354 153.292542,282.641724 
	C152.331528,283.063416 151.370514,283.485077 150.058594,283.893799 
z"/>
<path fill="#100F10" opacity="1.000000" stroke="none" 
	d="
M34.135437,90.811066 
	C33.815941,89.523666 33.773056,88.056992 33.850403,86.298706 
	C38.790741,87.102631 35.695995,88.953621 34.135437,90.811066 
z"/>
<path fill="#0E0B0F" opacity="1.000000" stroke="none" 
	d="
M32.096416,152.010590 
	C32.709812,152.449615 32.991234,153.006470 33.344154,153.793610 
	C32.814224,154.855988 32.212791,155.688080 31.305893,156.760284 
	C31.000423,157.000412 30.992504,156.995499 30.992504,156.995499 
	C31.249817,155.373138 31.507130,153.750763 32.096416,152.010590 
z"/>
<path fill="#0D0B0D" opacity="1.000000" stroke="none" 
	d="
M89.920212,223.429733 
	C90.247017,224.106201 90.303261,224.797562 90.359497,225.488907 
	C89.607620,225.440079 88.855736,225.391235 88.103867,225.342392 
	C88.619125,224.709808 89.134384,224.077209 89.920212,223.429733 
z"/>
<path fill="#19111C" opacity="1.000000" stroke="none" 
	d="
M46.549225,78.029243 
	C46.676529,79.114708 46.461594,80.247299 46.085693,81.689926 
	C43.833977,80.534927 42.746964,79.142097 46.549225,78.029243 
z"/>
<path fill="#0E0B0F" opacity="1.000000" stroke="none" 
	d="
M47.999878,182.996918 
	C47.067219,182.323608 46.134808,181.653381 45.202393,180.983154 
	C45.592354,180.541519 45.982319,180.099899 46.372284,179.658264 
	C46.900730,180.536896 47.429176,181.415512 47.975754,182.646881 
	C47.993889,182.999634 48.000126,183.000000 47.999878,182.996918 
z"/>
<path fill="#0D0B0E" opacity="1.000000" stroke="none" 
	d="
M169.773315,193.971329 
	C169.823303,192.808960 170.069351,191.836029 170.315414,190.863113 
	C170.838760,191.083496 171.362091,191.303879 171.885437,191.524246 
	C171.246765,192.403091 170.608078,193.281937 169.773315,193.971329 
z"/>
<path fill="#0C0A0D" opacity="1.000000" stroke="none" 
	d="
M174.643585,110.988800 
	C174.712082,109.585724 174.989136,108.324173 175.266190,107.062630 
	C175.738464,107.199707 176.210724,107.336777 176.682999,107.473854 
	C176.072708,108.692680 175.462418,109.911507 174.643585,110.988800 
z"/>
<path fill="#0E0B0F" opacity="1.000000" stroke="none" 
	d="
M33.992668,161.007889 
	C35.448654,161.392517 36.904640,161.777130 38.360626,162.161758 
	C38.153400,162.690811 37.946175,163.219864 37.738945,163.748917 
	C36.565735,163.034698 35.392521,162.320465 34.109688,161.303085 
	C34.000065,160.999939 33.992668,161.007889 33.992668,161.007889 
z"/>
<path fill="#0B090C" opacity="1.000000" stroke="none" 
	d="
M163.354980,39.705132 
	C164.116760,40.298889 164.635345,40.940174 165.153915,41.581463 
	C164.774200,41.807518 164.394485,42.033573 164.014771,42.259624 
	C163.713776,41.423965 163.412781,40.588310 163.354980,39.705132 
z"/>
<path fill="#0C0A0D" opacity="1.000000" stroke="none" 
	d="
M112.760284,44.420795 
	C113.078384,45.158745 113.136414,45.875023 113.194443,46.591297 
	C112.501068,46.418823 111.807701,46.246353 111.114326,46.073879 
	C111.576286,45.515625 112.038246,44.957371 112.760284,44.420795 
z"/>
<path fill="#0B090C" opacity="1.000000" stroke="none" 
	d="
M64.893257,37.164062 
	C63.953884,37.567886 63.014511,37.971710 62.075138,38.375534 
	C61.943977,37.963703 61.812817,37.551876 61.681656,37.140045 
	C62.654427,36.952530 63.627197,36.765011 64.812057,36.799686 
	C65.024155,37.021881 64.893257,37.164066 64.893257,37.164062 
z"/>
<path fill="#110F12" opacity="1.000000" stroke="none" 
	d="
M167.921204,48.322742 
	C167.359009,47.672974 167.067444,46.960850 166.775864,46.248730 
	C167.198547,46.136288 167.621246,46.023842 168.043945,45.911400 
	C168.093231,46.694397 168.142517,47.477394 167.921204,48.322742 
z"/>
<path fill="#0E0B0F" opacity="1.000000" stroke="none" 
	d="
M31.043335,157.958252 
	C31.992769,158.749329 32.942204,159.540405 33.942154,160.669678 
	C33.992668,161.007889 34.000065,160.999939 34.003967,160.995682 
	C32.991611,160.218369 31.975357,159.445312 30.981922,158.332153 
	C31.004744,157.992035 31.043335,157.958252 31.043335,157.958252 
z"/>
<path fill="#0D0B0E" opacity="1.000000" stroke="none" 
	d="
M136.521790,223.476898 
	C135.923828,223.117386 135.567627,222.660568 135.211426,222.203735 
	C135.961151,221.957779 136.710876,221.711823 137.460602,221.465851 
	C137.228256,222.103760 136.995911,222.741669 136.521790,223.476898 
z"/>
<path fill="#0C0A0D" opacity="1.000000" stroke="none" 
	d="
M61.840073,78.104324 
	C61.731140,76.842049 62.085350,75.587822 62.692169,74.118881 
	C63.756615,74.427368 64.568451,74.950577 66.010925,75.880219 
	C64.582733,76.740036 63.442974,77.426208 61.840073,78.104324 
z"/>
<path fill="#0D0B0D" opacity="1.000000" stroke="none" 
	d="
M96.471222,226.681824 
	C95.663795,226.991653 94.723190,227.091766 93.782593,227.191864 
	C93.854111,226.662384 93.925629,226.132904 93.997147,225.603424 
	C94.777451,225.892975 95.557747,226.182526 96.471222,226.681824 
z"/>
<path fill="#1A161B" opacity="1.000000" stroke="none" 
	d="
M201.581741,78.134262 
	C201.198166,77.234589 201.081741,76.425224 201.028046,75.309273 
	C202.054031,76.029579 203.017288,77.056465 203.980545,78.083344 
	C203.270004,78.130424 202.559448,78.177498 201.581741,78.134262 
z"/>
<path fill="#0C0A0D" opacity="1.000000" stroke="none" 
	d="
M60.544708,83.037163 
	C60.326099,82.461884 60.402180,81.904861 60.702850,81.165802 
	C61.830898,81.360748 62.734348,81.737747 63.637794,82.114746 
	C63.572186,82.382225 63.506577,82.649704 63.440968,82.917183 
	C62.573772,82.963264 61.706581,83.009346 60.544708,83.037163 
z"/>
<path fill="#0C0A0D" opacity="1.000000" stroke="none" 
	d="
M92.237045,51.667084 
	C91.643684,51.980007 91.134796,52.055202 90.625916,52.130394 
	C90.770630,51.622166 90.915337,51.113941 91.060051,50.605713 
	C91.480537,50.880257 91.901031,51.154804 92.237045,51.667084 
z"/>
<path fill="#0B090C" opacity="1.000000" stroke="none" 
	d="
M160.731064,37.607494 
	C160.229675,37.862801 159.681122,37.893078 159.132568,37.923351 
	C159.145050,37.502045 159.157532,37.080738 159.170029,36.659431 
	C159.674652,36.900444 160.179276,37.141457 160.731064,37.607494 
z"/>
<path fill="#0D0B0E" opacity="1.000000" stroke="none" 
	d="
M118.397018,228.924438 
	C118.057976,228.252258 118.001595,227.496002 118.022476,226.366745 
	C118.810555,226.436691 119.521378,226.879623 120.232208,227.322556 
	C119.714699,227.828491 119.197189,228.334427 118.397018,228.924438 
z"/>
<path fill="#1A161B" opacity="1.000000" stroke="none" 
	d="
M199.105530,64.816376 
	C198.409668,64.199883 197.934555,63.355949 197.397644,62.223503 
	C197.999329,62.819637 198.662811,63.704288 199.105530,64.816376 
z"/>
<path fill="#0C0A0D" opacity="1.000000" stroke="none" 
	d="
M126.005600,49.458202 
	C125.864799,48.891708 125.921478,48.399681 125.978165,47.907650 
	C126.244980,48.016674 126.511803,48.125698 126.778625,48.234722 
	C126.586784,48.667374 126.394936,49.100021 126.005600,49.458202 
z"/>
<path fill="#110F12" opacity="1.000000" stroke="none" 
	d="
M178.217270,62.023262 
	C178.596649,62.904411 178.758499,63.719875 178.920349,64.535339 
	C178.613480,64.563866 178.306610,64.592392 177.999741,64.620918 
	C177.999741,63.733139 177.999741,62.845360 178.217270,62.023262 
z"/>
<path fill="#0B090C" opacity="1.000000" stroke="none" 
	d="
M82.745117,25.578150 
	C83.457329,25.849243 83.954308,26.183552 84.451286,26.517860 
	C84.108612,26.739952 83.765945,26.962046 83.423279,27.184143 
	C83.125481,26.669886 82.827682,26.155626 82.745117,25.578150 
z"/>
<path fill="#121012" opacity="1.000000" stroke="none" 
	d="
M19.809414,79.118301 
	C20.100037,79.801460 20.093969,80.614029 19.991486,81.717239 
	C19.767620,81.087830 19.640169,80.167778 19.809414,79.118301 
z"/>
<path fill="#19111C" opacity="1.000000" stroke="none" 
	d="
M48.637035,70.071228 
	C48.776108,70.836739 48.630363,71.692802 48.236794,72.776627 
	C48.110046,72.056847 48.231133,71.109322 48.637035,70.071228 
z"/>
<path fill="#0D0B0D" opacity="1.000000" stroke="none" 
	d="
M103.617393,244.105698 
	C103.930817,244.745071 103.989334,245.502457 103.967598,246.633270 
	C103.712395,246.079041 103.537445,245.151367 103.617393,244.105698 
z"/>
<path fill="#0B0A0B" opacity="1.000000" stroke="none" 
	d="
M57.138184,109.690689 
	C57.193779,109.165520 57.369301,108.799126 57.544823,108.432732 
	C57.814987,108.745216 58.085155,109.057709 58.355320,109.370193 
	C57.989578,109.529953 57.623840,109.689705 57.138184,109.690689 
z"/>
<path fill="#060607" opacity="1.000000" stroke="none" 
	d="
M144.853165,291.791016 
	C144.299942,291.827301 143.599899,291.654602 142.899857,291.481873 
	C142.985672,291.241364 143.071503,291.000824 143.157333,290.760284 
	C143.673660,291.034210 144.189987,291.308136 144.853165,291.791016 
z"/>
<path fill="#1A161B" opacity="1.000000" stroke="none" 
	d="
M200.340240,69.159210 
	C199.743912,68.694305 199.388489,68.102386 199.079865,67.250916 
	C199.611511,67.671631 200.096344,68.351906 200.340240,69.159210 
z"/>
<path fill="#0B090C" opacity="1.000000" stroke="none" 
	d="
M90.764877,24.651070 
	C91.061043,24.786135 91.222633,25.048454 91.384232,25.310772 
	C91.132927,25.133289 90.881622,24.955807 90.764877,24.651070 
z"/>
<path fill="#0B090C" opacity="1.000000" stroke="none" 
	d="
M115.230331,20.824070 
	C115.142899,21.010557 114.976631,21.109861 114.810364,21.209167 
	C114.924080,21.051743 115.037788,20.894314 115.230331,20.824070 
z"/>
<path fill="#0D0B0E" opacity="1.000000" stroke="none" 
	d="
M125.772568,226.189957 
	C125.859131,226.005753 126.023727,225.907867 126.188324,225.809967 
	C126.075752,225.965408 125.963181,226.120834 125.772568,226.189957 
z"/>
<path fill="#0B090C" opacity="1.000000" stroke="none" 
	d="
M131.221725,22.832666 
	C131.137573,23.011339 130.977997,23.106293 130.818405,23.201244 
	C130.927704,23.050478 131.036987,22.899714 131.221725,22.832666 
z"/>
<path fill="#0D0B0E" opacity="1.000000" stroke="none" 
	d="
M146.009125,218.010651 
	C145.801941,218.400482 145.595490,218.786728 145.353760,219.149475 
	C145.324615,219.193222 145.104721,219.109863 144.973236,219.085419 
	C145.173843,218.763351 145.374451,218.441284 145.776230,218.049774 
	C145.977386,217.980316 145.999207,217.999939 146.009125,218.010651 
z"/>
<path fill="#0D0B0D" opacity="1.000000" stroke="none" 
	d="
M100.219604,226.833328 
	C100.135941,227.011063 99.977203,227.105515 99.818466,227.199951 
	C99.927155,227.049988 100.035851,226.900009 100.219604,226.833328 
z"/>
<path fill="#0D0B0D" opacity="1.000000" stroke="none" 
	d="
M103.673965,227.078415 
	C103.940147,227.441101 103.994011,227.891953 103.966270,228.675400 
	C103.743668,228.394180 103.602661,227.780396 103.673965,227.078415 
z"/>
<path fill="#0E0B0F" opacity="1.000000" stroke="none" 
	d="
M44.277824,174.416382 
	C44.446617,174.412033 44.585693,174.513519 44.724770,174.615021 
	C44.565884,174.584091 44.406998,174.553177 44.277824,174.416382 
z"/>
<path fill="#0F0E0F" opacity="1.000000" stroke="none" 
	d="
M201.007538,109.007469 
	C200.950256,109.460060 200.899200,109.909050 200.809341,110.350136 
	C200.796494,110.413254 200.596069,110.438156 200.482468,110.480743 
	C200.549530,110.090446 200.616592,109.700157 200.835907,109.151688 
	C200.988174,108.993515 201.001312,109.001343 201.007538,109.007469 
z"/>
<path fill="#19111C" opacity="1.000000" stroke="none" 
	d="
M43.454773,99.274857 
	C43.484539,99.262505 43.425011,99.287224 43.454773,99.274857 
z"/>
<path fill="#0C0A0D" opacity="1.000000" stroke="none" 
	d="
M78.931198,58.159096 
	C79.073372,58.026737 79.204155,57.994789 79.334938,57.962841 
	C79.196564,58.061726 79.058189,58.160614 78.931198,58.159096 
z"/>
<path fill="#060607" opacity="1.000000" stroke="none" 
	d="
M71.476410,277.183350 
	C71.395432,277.520874 71.184036,277.908203 70.752464,278.257935 
	C70.803528,277.891296 71.074760,277.562256 71.476410,277.183350 
z"/>
<path fill="#0D0B0E" opacity="1.000000" stroke="none" 
	d="
M190.108307,148.738861 
	C189.765152,148.463226 189.518448,147.983917 189.260345,147.229034 
	C189.567535,147.480713 189.886139,148.007950 190.108307,148.738861 
z"/>
<path fill="#060607" opacity="1.000000" stroke="none" 
	d="
M146.001129,292.001221 
	C145.696503,292.107513 145.390747,292.212616 145.042496,292.158844 
	C145.000000,292.000000 145.498810,291.997772 145.748184,291.997681 
	C145.997559,291.997559 146.000000,292.000000 146.001129,292.001221 
z"/>
<path fill="#0B090C" opacity="1.000000" stroke="none" 
	d="
M93.476624,22.932793 
	C93.523384,22.914206 93.531090,23.102016 93.531090,23.102016 
	C93.531090,23.102016 93.429855,22.951382 93.476624,22.932793 
z"/>
<path fill="#0D0B0D" opacity="1.000000" stroke="none" 
	d="
M103.720085,231.033569 
	C103.917130,231.156937 103.962509,231.326538 103.945999,231.752106 
	C103.778885,231.698624 103.673653,231.389206 103.720085,231.033569 
z"/>
<path fill="#0C0A0D" opacity="1.000000" stroke="none" 
	d="
M53.059845,46.477161 
	C53.076622,46.520370 53.043072,46.433952 53.059845,46.477161 
z"/>
<path fill="#0B090C" opacity="1.000000" stroke="none" 
	d="
M148.466339,31.906815 
	C148.526337,31.881159 148.540909,32.125263 148.540909,32.125263 
	C148.540909,32.125263 148.406326,31.932468 148.466339,31.906815 
z"/>
<path fill="#121012" opacity="1.000000" stroke="none" 
	d="
M18.104679,92.374573 
	C18.165953,92.184052 18.224510,92.205750 18.257904,92.202988 
	C18.175415,92.467468 18.059532,92.734718 17.943649,93.001968 
	C17.976900,92.856346 18.010151,92.710716 18.104679,92.374573 
z"/>
<path fill="#0D0B0D" opacity="1.000000" stroke="none" 
	d="
M54.215630,199.404480 
	C54.161163,199.583221 54.042313,199.644333 53.923454,199.705444 
	C53.999386,199.565918 54.075314,199.426392 54.215630,199.404480 
z"/>
<path fill="#110F12" opacity="1.000000" stroke="none" 
	d="
M181.400604,74.173836 
	C181.369492,74.147514 181.431702,74.200157 181.400604,74.173836 
z"/>
<path fill="#0E0B0F" opacity="1.000000" stroke="none" 
	d="
M43.923752,166.453461 
	C43.955307,166.417389 43.892197,166.489548 43.923752,166.453461 
z"/>
<path fill="#0C0A0D" opacity="1.000000" stroke="none" 
	d="
M49.855709,52.900970 
	C50.114487,52.753296 50.373268,52.605618 50.632046,52.457939 
	C50.556721,52.654842 50.481392,52.851746 50.192856,53.030815 
	C49.979645,53.012985 49.855709,52.900970 49.855709,52.900970 
z"/>
<path fill="#0D0B0E" opacity="1.000000" stroke="none" 
	d="
M176.959900,177.928375 
	C177.222183,177.714951 177.563034,177.600433 177.903885,177.485916 
	C177.779709,177.687210 177.655548,177.888519 177.364655,178.156540 
	C177.197922,178.223267 177.038467,178.027298 176.959900,177.928375 
z"/>
<path fill="#0C0A0D" opacity="1.000000" stroke="none" 
	d="
M50.038006,53.072742 
	C50.096367,53.132500 49.828018,53.273228 49.828018,53.273228 
	C49.828018,53.273228 49.758183,53.025238 49.806946,52.963104 
	C49.855709,52.900970 49.979645,53.012985 50.038006,53.072742 
z"/>
<path fill="#0B090C" opacity="1.000000" stroke="none" 
	d="
M61.475151,40.473881 
	C61.511780,40.455589 61.438519,40.492172 61.475151,40.473881 
z"/>
<path fill="#0C0A0D" opacity="1.000000" stroke="none" 
	d="
M41.992790,64.988663 
	C41.984894,64.978287 42.113071,64.953537 42.067291,64.984100 
	C42.021511,65.014664 42.000690,64.999031 41.992790,64.988663 
z"/>
<path fill="#0B090C" opacity="1.000000" stroke="none" 
	d="
M65.094818,36.955963 
	C65.165474,36.890041 65.428032,37.259445 65.428032,37.259445 
	C65.428032,37.259445 65.045502,37.346920 64.969376,37.255493 
	C64.893257,37.164066 65.024155,37.021881 65.094818,36.955963 
z"/>
<path fill="#1A161B" opacity="1.000000" stroke="none" 
	d="
M200.291595,70.450912 
	C200.191360,70.436157 200.245453,70.396400 200.217102,70.373871 
	C200.188766,70.351341 200.471481,70.385551 200.471481,70.385551 
	C200.471481,70.385551 200.391846,70.465668 200.291595,70.450912 
z"/>
<path fill="#0C0A0D" opacity="1.000000" stroke="none" 
	d="
M67.493378,71.492020 
	C67.513519,71.484451 67.473244,71.499580 67.493378,71.492020 
z"/>
<path fill="#121012" opacity="1.000000" stroke="none" 
	d="
M19.480703,74.514145 
	C19.466568,74.483444 19.494839,74.544846 19.480703,74.514145 
z"/>
<path fill="#19111C" opacity="1.000000" stroke="none" 
	d="
M47.345177,75.251205 
	C47.496887,75.243904 47.449917,75.696426 47.279015,75.846634 
	C46.867584,75.714951 46.896038,75.468834 47.345177,75.251205 
z"/>
<path fill="#121012" opacity="1.000000" stroke="none" 
	d="
M20.649923,76.698120 
	C20.868866,76.850632 20.892162,77.242256 20.745586,77.878754 
	C20.535234,77.728165 20.494757,77.332703 20.649923,76.698120 
z"/>
<path fill="#0C0A0D" opacity="1.000000" stroke="none" 
	d="
M63.437859,78.330795 
	C63.471920,78.296509 63.798138,78.635735 63.798138,78.635735 
	C63.798138,78.635735 63.499657,78.637459 63.415268,78.532997 
	C63.330879,78.428535 63.403801,78.365089 63.437859,78.330795 
z"/>
<path fill="#110F12" opacity="1.000000" stroke="none" 
	d="
M171.003815,49.997452 
	C171.007614,49.994854 170.950851,49.920338 170.972809,49.964050 
	C170.994766,50.007767 171.000000,50.000053 171.003815,49.997452 
z"/>
<path fill="#0C0A0D" opacity="1.000000" stroke="none" 
	d="
M50.505569,48.494312 
	C50.512596,48.514313 50.498543,48.474312 50.505569,48.494312 
z"/>
<path fill="#0D0B0E" opacity="1.000000" stroke="none" 
	d="
M128.516205,226.485153 
	C128.528564,226.513550 128.503860,226.456757 128.516205,226.485153 
z"/>
<path fill="#0F0E0F" opacity="1.000000" stroke="none" 
	d="
M186.511185,102.491730 
	C186.520416,102.514923 186.501953,102.468536 186.511185,102.491730 
z"/>
<path fill="#0C0A0D" opacity="1.000000" stroke="none" 
	d="
M171.470428,112.527832 
	C171.442368,112.477722 171.498474,112.577950 171.470428,112.527832 
z"/>
<path fill="#0D0B0E" opacity="1.000000" stroke="none" 
	d="
M131.511612,224.511169 
	C131.486801,224.520782 131.536423,224.501556 131.511612,224.511169 
z"/>
<path fill="#0D0B0E" opacity="1.000000" stroke="none" 
	d="
M191.511307,156.493439 
	C191.521194,156.518509 191.501419,156.468353 191.511307,156.493439 
z"/>
<path fill="#0E0B0F" opacity="1.000000" stroke="none" 
	d="
M30.984406,158.007660 
	C30.747934,157.781708 30.698357,157.516083 30.903917,157.110962 
	C30.992504,156.995499 31.000423,157.000412 31.004818,157.004669 
	C31.009214,157.008911 31.029436,157.483994 31.036385,157.721130 
	C31.043335,157.958252 31.004744,157.992035 30.984406,158.007660 
z"/>
<path fill="#0D0B0E" opacity="1.000000" stroke="none" 
	d="
M176.489105,174.512207 
	C176.479645,174.488052 176.498566,174.536377 176.489105,174.512207 
z"/>
<path fill="#0D0B0D" opacity="1.000000" stroke="none" 
	d="
M73.483658,217.519501 
	C73.471428,217.490646 73.495880,217.548370 73.483658,217.519501 
z"/>
<path fill="#0D0B0E" opacity="1.000000" stroke="none" 
	d="
M178.425980,175.546387 
	C178.378006,175.474579 178.570847,175.452698 178.570847,175.452698 
	C178.570847,175.452698 178.473953,175.618210 178.425980,175.546387 
z"/>
<path fill="#0D0B0D" opacity="1.000000" stroke="none" 
	d="
M64.543091,211.459076 
	C64.572884,211.510925 64.513298,211.407242 64.543091,211.459076 
z"/>
<path fill="#0B090C" opacity="1.000000" stroke="none" 
	d="
M88.493820,24.504995 
	C88.486633,24.484268 88.501015,24.525723 88.493820,24.504995 
z"/>
<path fill="#0D0B0D" opacity="1.000000" stroke="none" 
	d="
M62.537178,209.479614 
	C62.558830,209.520218 62.515522,209.438995 62.537178,209.479614 
z"/>
<path fill="#0D0B0E" opacity="1.000000" stroke="none" 
	d="
M161.987885,204.979523 
	C161.974030,204.963058 162.125778,204.955109 162.080154,204.989471 
	C162.034531,205.023849 162.001755,204.995987 161.987885,204.979523 
z"/>
<path fill="#0D0B0E" opacity="1.000000" stroke="none" 
	d="
M164.471832,203.468933 
	C164.512894,203.447433 164.430786,203.490448 164.471832,203.468933 
z"/>
<path fill="#0B090C" opacity="1.000000" stroke="none" 
	d="
M127.465378,23.520096 
	C127.440933,23.474424 127.489830,23.565765 127.465378,23.520096 
z"/>
<path fill="#010001" opacity="1.000000" stroke="none" 
	d="
M30.512852,104.077507 
	C31.361504,104.656357 31.848448,105.373444 32.335392,106.090523 
	C29.889946,107.255737 27.421709,109.382164 25.005241,109.324883 
	C22.414896,109.263474 19.741928,107.241005 20.856709,103.251419 
	C24.072531,103.389572 27.111837,103.802658 30.512852,104.077507 
z"/>
<path fill="#CC83FF" opacity="1.000000" stroke="none" 
	d="
M137.030304,105.001404 
	C137.027908,122.145607 137.082413,138.790451 137.006577,155.434692 
	C136.934387,171.279068 125.730507,183.032242 110.912575,182.973022 
	C96.081367,182.913742 85.039070,171.162750 84.995338,155.240692 
	C84.939102,134.768005 84.939301,114.294930 84.994461,93.822243 
	C85.037354,77.904617 96.058716,66.113670 110.837112,66.024292 
	C125.826424,65.933647 136.911972,77.778038 137.022263,94.015701 
	C137.046005,97.510918 137.028671,101.006409 137.030304,105.001404 
z"/>
<path fill="#FD92DC" opacity="1.000000" stroke="none" 
	d="
M87.022110,203.074417 
	C71.032570,194.254562 62.043041,180.994995 59.351482,163.373184 
	C58.450714,157.475800 58.838413,157.397232 64.669220,156.880768 
	C70.080109,156.401505 71.944214,158.216034 72.849922,163.674973 
	C76.011299,182.729248 92.039841,195.982330 110.958717,195.989410 
	C129.897614,195.996506 145.736282,182.689270 149.297760,163.777985 
	C150.477570,157.513184 155.316849,154.712357 161.156693,157.332047 
	C162.190308,157.795715 162.906219,160.314316 162.784927,161.803879 
	C160.951645,184.317993 143.716202,203.393753 121.321510,207.910355 
	C109.455948,210.303421 98.145576,208.659271 87.022110,203.074417 
z"/>
<path fill="#010001" opacity="1.000000" stroke="none" 
	d="
M177.503998,101.493866 
	C177.511063,101.514832 177.496918,101.472900 177.503998,101.493866 
z"/>
<path fill="#010001" opacity="1.000000" stroke="none" 
	d="
M80.001732,220.002441 
	C80.003464,220.004883 79.908257,220.046921 79.951721,220.021790 
	C79.995178,219.996674 80.000000,220.000000 80.001732,220.002441 
z"/>
</svg>